<?xml version="1.0" encoding="utf-8"?>
<!-- Generator: Adobe Illustrator 15.1.0, SVG Export Plug-In  -->
<!DOCTYPE svg PUBLIC "-//W3C//DTD SVG 1.1//EN" "http://www.w3.org/Graphics/SVG/1.1/DTD/svg11.dtd" [
	<!ENTITY ns_flows "http://ns.adobe.com/Flows/1.0/">
]>
<svg version="1.1"
	 xmlns="http://www.w3.org/2000/svg" xmlns:xlink="http://www.w3.org/1999/xlink" xmlns:a="http://ns.adobe.com/AdobeSVGViewerExtensions/3.0/"
	 x="0px" y="0px" width="424px" height="204px" viewBox="186 295 424 204"
	 overflow="visible" enable-background="new 186 295 424 204" xml:space="preserve">
<defs>
</defs>
<rect display="none" opacity="0.1" fill="#C22E00" width="800" height="600"/>
<path fill="#C22E00" d="M274.184,466.918c-4.071,0-7.587-1.658-9.176-4.327l-0.088-0.155l-21.984-40.986
	c-0.496-0.863-0.706-1.791-0.761-2.759L239,357.14v-0.105c0-3.508,2.912-6.455,7.349-7.333l70.573-13.361
	c0.851-0.168,1.75-0.257,2.673-0.257c4.038,0,7.517,1.616,9.129,4.228l27.038,41.061l0.042,0.074
	c0.541,0.906,0.841,1.878,0.892,2.889l0.012,0.238l-3.989,58.485c0.014,3.457-2.84,6.331-7.209,7.224l-68.52,16.357l-0.077,0.015
	C276.025,466.829,275.107,466.918,274.184,466.918z"/>
<path fill="#FFFFFF" d="M352.385,383.498c1.089,1.832-0.589,3.823-3.735,4.446L276.136,402.3c-3.158,0.625-6.602-0.354-7.691-2.185
	l-25.018-42.049c-1.086-1.826,0.591-3.817,3.749-4.441l70.514-13.354c3.146-0.623,6.591,0.355,7.677,2.181L352.385,383.498z"/>
<path fill="#C22E00" d="M309.346,363.774c-3.675,0-7.194-0.863-9.91-2.432c-3.347-1.933-5.278-4.854-5.296-8.017l0.002-6.919
	c-0.07-3.226,1.835-6.204,5.236-8.181c2.705-1.572,6.22-2.438,9.899-2.438c3.675,0,6.952,0.863,9.668,2.432
	c3.347,1.932,5.055,4.854,5.055,8.017v6.971c0,3.182-1.714,6.222-4.996,8.13C316.299,362.909,313.025,363.774,309.346,363.774z"/>
<path fill="#FFFFFF" d="M317.187,341.685c4.375,2.526,4.399,6.626,0.052,9.152s-11.425,2.526-15.8,0
	c-4.381-2.529-4.398-6.626-0.051-9.152C305.733,339.159,312.806,339.155,317.187,341.685z"/>
<path fill="#C22E00" d="M269.615,371.726c-3.675,0-7.194-0.863-9.91-2.432c-3.347-1.933-5.278-4.854-5.296-8.016l0.002-6.92
	c-0.07-3.225,1.834-6.203,5.236-8.18c2.705-1.572,6.221-2.438,9.9-2.438c3.675,0,7.317,0.863,10.033,2.432
	c3.347,1.932,5.42,4.854,5.42,8.016v6.921c0,3.226-1.96,6.203-5.362,8.18C276.935,370.86,273.294,371.726,269.615,371.726z"/>
<path fill="#FFFFFF" d="M277.457,349.637c4.375,2.526,4.399,6.625,0.052,9.151s-11.425,2.526-15.8,0
	c-4.381-2.529-4.398-6.625-0.051-9.151C266.003,347.111,273.076,347.107,277.457,349.637z"/>
<path fill="#C22E00" d="M323.576,387.521c-3.864,0-7.562-0.906-10.411-2.552c-3.479-2.009-5.486-5.035-5.506-8.305l0.002-7.361
	c-0.073-3.336,1.906-6.423,5.442-8.478c2.837-1.648,6.531-2.557,10.399-2.557c3.864,0,7.352,0.906,10.201,2.552
	c3.479,2.008,5.295,5.035,5.295,8.306v7.36c0,3.338-1.699,6.424-5.234,8.478C330.929,386.612,327.445,387.521,323.576,387.521z"/>
<path fill="#FFFFFF" d="M331.915,364.284c4.653,2.687,4.678,7.046,0.056,9.732c-4.622,2.687-12.15,2.687-16.802,0
	c-4.66-2.689-4.677-7.046-0.055-9.732C319.735,361.599,327.256,361.595,331.915,364.284z"/>
<path fill="#C22E00" d="M283.389,394.913c-3.864,0-7.562-0.906-10.411-2.552c-3.479-2.009-5.486-5.036-5.505-8.306l0.002-7.36
	c-0.074-3.336,1.906-6.423,5.442-8.478c2.837-1.648,6.531-2.557,10.399-2.557c3.864,0,7.445,0.906,10.295,2.552
	c3.479,2.008,5.389,5.035,5.389,8.306v7.36c0,3.338-1.792,6.424-5.328,8.478C290.835,394.005,287.258,394.913,283.389,394.913z"/>
<path fill="#FFFFFF" d="M291.728,371.677c4.653,2.687,4.678,7.046,0.056,9.732c-4.622,2.687-12.15,2.687-16.802,0
	c-4.66-2.689-4.677-7.046-0.055-9.732C279.548,368.991,287.069,368.987,291.728,371.677z"/>
<path fill="#FFFFFF" d="M327.021,409.292c-1.402-1.402-3.186-1.604-5.979-1.689l-8.218,0.1c-2.804,0.085-7.965,2.652-12.171,6.859
	c-4.144,4.143-7.285,8.415-7.313,11.588l-0.484,10.397c0,2.347,0.185,3.832,1.519,5.166c1.313,1.313,3.56,2.18,5.86,2.045
	l0.022-0.002l-5.053-11.83l9.258-2.086l10.269-9.819l2.92-9.273l10.429,8.552l-13.349,0.722l3.657,14.312l-13.926-4.492
	l-4.203,13.916l26.714-1.851l1.94-27.309l0,0C329.105,412.231,328.364,410.634,327.021,409.292z"/>
<path fill="#C22E00" d="M396.308,388.328c1.669-2.521,3.677-3.783,6.022-3.783c3.623,0,6.322,1.545,8.1,4.637
	c0.391-0.533,0.861-1.094,1.412-1.68s1.43-1.225,2.639-1.918c1.207-0.693,2.451-1.039,3.73-1.039c2.842,0,5.223,1.092,7.141,3.277
	s2.877,5.801,2.877,10.844v9.326c0,0.818-0.025,1.432-0.08,1.84c-0.053,0.408-0.221,0.879-0.506,1.412
	c-0.461,0.959-1.83,1.438-4.104,1.438c-2.238,0-3.605-0.496-4.104-1.492c-0.248-0.533-0.398-1.002-0.453-1.412
	c-0.053-0.408-0.08-1.02-0.08-1.838v-9.326c0-3.09-1.102-4.637-3.303-4.637c-1.244,0-2.088,0.41-2.531,1.227
	c-0.445,0.816-0.666,1.971-0.666,3.463v9.326c0,0.854-0.027,1.475-0.08,1.865c-0.055,0.393-0.223,0.854-0.506,1.387
	c-0.498,0.959-1.885,1.438-4.158,1.438c-2.238,0-3.605-0.496-4.104-1.492c-0.248-0.533-0.398-1.002-0.453-1.412
	c-0.053-0.408-0.078-1.02-0.078-1.838v-9.326c0-3.09-1.102-4.637-3.305-4.637c-2.132,0-3.197,1.547-3.197,4.637v9.432
	c0,0.818-0.026,1.432-0.08,1.84c-0.053,0.408-0.222,0.879-0.506,1.412c-0.533,0.924-1.919,1.385-4.157,1.385
	s-3.605-0.479-4.104-1.438c-0.248-0.533-0.399-0.994-0.452-1.387c-0.054-0.391-0.08-1.012-0.08-1.865v-18.758
	c0-0.816,0.026-1.43,0.08-1.838c0.053-0.408,0.221-0.861,0.506-1.359c0.533-0.959,1.794-1.439,3.784-1.439
	c1.989,0,3.285,0.32,3.89,0.959C396.005,386.197,396.308,387.121,396.308,388.328z"/>
<path fill="#C22E00" d="M453.703,384.918c0.674,0.213,1.232,0.578,1.678,1.092c0.443,0.516,0.666,1.342,0.666,2.479
	s-0.338,2.381-1.012,3.73c-0.676,1.35-1.652,2.025-2.932,2.025c-0.639,0-1.252-0.143-1.838-0.428
	c-0.586-0.283-1.359-0.426-2.318-0.426s-1.857,0.338-2.691,1.014c-0.836,0.674-1.252,1.492-1.252,2.451v11.189
	c0,0.818-0.027,1.432-0.08,1.84s-0.223,0.879-0.506,1.412c-0.533,0.924-1.92,1.385-4.158,1.385c-1.705,0-2.93-0.301-3.676-0.906
	c-0.568-0.496-0.889-1.26-0.959-2.291c0-0.354,0-0.869,0-1.545v-18.705c0-0.816,0.025-1.43,0.08-1.838
	c0.053-0.408,0.203-0.861,0.451-1.359c0.498-0.959,1.883-1.439,4.158-1.439c2.131,0,3.463,0.408,3.996,1.227
	c0.391,0.568,0.586,1.154,0.586,1.758c0.178-0.248,0.436-0.551,0.773-0.906c0.338-0.354,1.057-0.834,2.158-1.438
	c1.1-0.605,2.068-0.906,2.904-0.906c0.834,0,1.535,0.045,2.105,0.133C452.404,384.555,453.027,384.705,453.703,384.918z"/>
<path fill="#C22E00" d="M472.514,412.576c-3.59,0-6.564-1.359-8.926-4.078c-2.363-2.717-3.545-6.029-3.545-9.938v-9.326
	c0-0.854,0.027-1.475,0.08-1.865s0.205-0.854,0.453-1.385c0.498-0.961,1.883-1.439,4.156-1.439c2.486,0,3.943,0.676,4.371,2.025
	c0.213,0.568,0.318,1.475,0.318,2.717v9.326c0,1.457,0.418,2.594,1.252,3.41c0.836,0.818,1.955,1.227,3.357,1.227
	c1.404,0,2.541-0.426,3.412-1.279c0.869-0.854,1.305-1.973,1.305-3.357v-9.432c0-0.818,0.027-1.43,0.08-1.84
	c0.053-0.408,0.221-0.879,0.506-1.412c0.461-0.924,1.83-1.385,4.104-1.385c2.238,0,3.605,0.479,4.104,1.439
	c0.248,0.531,0.4,1.004,0.453,1.412s0.08,1.021,0.08,1.838V408.1c0,0.781-0.027,1.377-0.08,1.785s-0.223,0.861-0.506,1.359
	c-0.533,0.924-1.9,1.385-4.104,1.385c-2.168,0-3.5-0.426-3.996-1.279c-0.355-0.604-0.533-1.332-0.533-2.186
	c-0.143,0.25-0.463,0.605-0.959,1.066c-0.498,0.463-0.979,0.854-1.439,1.172C475.248,412.186,473.934,412.576,472.514,412.576z"/>
<path fill="#C22E00" d="M510.936,384.65c3.162,0,6.066,1.404,8.713,4.211s3.971,6.066,3.971,9.779s-1.314,6.963-3.943,9.752
	c-2.631,2.789-5.455,4.184-8.475,4.184s-5.168-0.854-6.447-2.559c-0.285,1.74-1.812,2.611-4.584,2.611
	c-2.238,0-3.605-0.48-4.104-1.439c-0.248-0.533-0.398-1.002-0.451-1.412c-0.055-0.408-0.08-1.02-0.08-1.838v-31.814
	c0-0.816,0.025-1.43,0.08-1.839c0.053-0.408,0.203-0.86,0.451-1.358c0.498-0.96,1.883-1.439,4.158-1.439
	c2.238,0,3.588,0.479,4.049,1.439c0.285,0.532,0.453,1.004,0.508,1.412c0.053,0.408,0.08,1.021,0.08,1.838v11.084
	C506.281,385.521,508.307,384.65,510.936,384.65z M506.273,401.863c0.869,0.961,1.961,1.439,3.277,1.439
	c1.312,0,2.432-0.479,3.357-1.439c0.922-0.959,1.385-2.023,1.385-3.197c0-1.172-0.426-2.246-1.279-3.223
	c-0.852-0.977-1.99-1.467-3.41-1.467c-1.422,0-2.551,0.498-3.385,1.492c-0.834,0.996-1.252,2.07-1.252,3.225
	S505.402,400.904,506.273,401.863z"/>
<path fill="#C22E00" d="M553.195,384.918c2.096,0.924,3.145,2.043,3.145,3.357c0,0.639-0.143,1.244-0.428,1.811
	c-0.285,0.57-0.426,0.871-0.426,0.906l-13.963,31.229c-0.283,0.676-0.523,1.189-0.719,1.547c-0.195,0.354-0.506,0.691-0.932,1.012
	c-0.428,0.32-0.961,0.479-1.6,0.479s-1.582-0.266-2.824-0.799c-2.098-0.924-3.145-2.025-3.145-3.303
	c0-0.854,1.705-4.922,5.115-12.205L526.816,391.1c-0.711-1.172-1.066-2.043-1.066-2.611c0-1.137,0.959-2.273,2.877-3.41
	c1.209-0.711,2.15-1.066,2.826-1.066c0.674,0,1.225,0.143,1.65,0.426c0.428,0.285,0.738,0.578,0.934,0.879
	c0.195,0.303,1.172,1.955,2.93,4.957c1.76,3.002,3.438,5.801,5.037,8.393c0.178-0.566,1.137-2.762,2.877-6.58
	c1.74-3.82,2.674-5.854,2.799-6.102c0.123-0.25,0.328-0.551,0.613-0.906c0.461-0.604,1.109-0.906,1.943-0.906
	C551.072,384.172,552.057,384.42,553.195,384.918z"/>
</svg>
